<svg width="71" height="20" viewBox="0 0 71 20" fill="none" xmlns="http://www.w3.org/2000/svg">
<path d="M6.86963 19.2461C5.65088 19.2461 4.59619 18.9727 3.70557 18.4258C2.82275 17.8789 2.14307 17.125 1.6665 16.1641C1.18994 15.1953 0.95166 14.0898 0.95166 12.8477V12.4961C0.95166 11.2461 1.19385 10.1406 1.67822 9.17969C2.1626 8.21875 2.84619 7.46484 3.729 6.91797C4.61182 6.36328 5.65088 6.08594 6.84619 6.08594C7.98682 6.08594 8.96729 6.26562 9.7876 6.625C10.6157 6.97656 11.2876 7.38672 11.8032 7.85547L11.7798 11.4883H9.20166L8.74463 9.22656C8.55713 9.03906 8.31885 8.88672 8.02979 8.76953C7.74072 8.65234 7.44775 8.59375 7.15088 8.59375C6.52588 8.59375 6.00635 8.75 5.59229 9.0625C5.18604 9.375 4.88135 9.82031 4.67822 10.3984C4.4751 10.9766 4.37354 11.6758 4.37354 12.4961V12.8477C4.37354 13.7148 4.48682 14.4297 4.71338 14.9922C4.93994 15.5469 5.24072 15.957 5.61572 16.2227C5.99854 16.4883 6.42432 16.6211 6.89307 16.6211C7.49463 16.6211 7.9751 16.4648 8.33447 16.1523C8.70166 15.832 8.95166 15.3828 9.08447 14.8047H12.0142L12.0493 14.875C11.9165 15.7734 11.6509 16.5508 11.2524 17.207C10.8618 17.8633 10.3071 18.3672 9.58838 18.7188C8.87744 19.0703 7.97119 19.2461 6.86963 19.2461ZM16.1467 19.2461C14.8888 19.2461 13.8888 18.9102 13.1467 18.2383C12.4045 17.5586 12.0334 16.6367 12.0334 15.4727C12.0334 14.6758 12.2482 13.9766 12.6779 13.375C13.1154 12.7734 13.756 12.3008 14.5998 11.957C15.4513 11.6133 16.4982 11.4414 17.7404 11.4414H19.4162V10.5039C19.4162 9.89453 19.2365 9.40234 18.8771 9.02734C18.5256 8.64453 17.9943 8.45312 17.2834 8.45312C16.9162 8.45312 16.5881 8.5 16.299 8.59375C16.0099 8.67969 15.7443 8.80469 15.5021 8.96875L15.2326 10.6445H12.7717L12.7248 7.35156C13.3888 6.97656 14.1076 6.67188 14.881 6.4375C15.6545 6.20312 16.5178 6.08594 17.4709 6.08594C19.1271 6.08594 20.4357 6.47266 21.3967 7.24609C22.3576 8.01172 22.8381 9.10938 22.8381 10.5391V15.7656C22.8381 15.9375 22.8381 16.1094 22.8381 16.2812C22.8459 16.4453 22.8615 16.6055 22.8849 16.7617L24.2092 16.9492V19H19.967C19.881 18.7812 19.7951 18.5469 19.7092 18.2969C19.6232 18.0469 19.5607 17.7969 19.5217 17.5469C19.1154 18.0625 18.6349 18.4766 18.0803 18.7891C17.5334 19.0938 16.8888 19.2461 16.1467 19.2461ZM17.0607 16.7148C17.5373 16.7148 17.9904 16.6094 18.4201 16.3984C18.8498 16.1797 19.1818 15.8945 19.4162 15.543V13.5391H17.7287C16.9787 13.5391 16.4084 13.7109 16.0178 14.0547C15.6349 14.3984 15.4435 14.8125 15.4435 15.2969C15.4435 15.75 15.5842 16.1016 15.8654 16.3516C16.1545 16.5938 16.5529 16.7148 17.0607 16.7148ZM23.9354 19V16.9492L25.5878 16.5977V8.72266H23.701V6.32031H25.5878V4.91406C25.5878 3.49219 25.994 2.39844 26.8065 1.63281C27.6268 0.859375 28.7713 0.472656 30.2401 0.472656C30.6073 0.472656 30.994 0.503906 31.4003 0.566406C31.8065 0.621094 32.1542 0.6875 32.4432 0.765625L32.1503 3.30859C31.9628 3.25391 31.7479 3.21484 31.5057 3.19141C31.2635 3.16016 31.0174 3.14453 30.7674 3.14453C30.1737 3.14453 29.7323 3.29688 29.4432 3.60156C29.1542 3.90625 29.0096 4.34375 29.0096 4.91406V6.32031H31.8807V8.72266H29.0096V16.5977L31.2479 16.9492V19H23.9354ZM31.6304 19V16.9492L33.2828 16.5977V8.72266H31.396V6.32031H33.2828V4.91406C33.2828 3.49219 33.689 2.39844 34.5015 1.63281C35.3218 0.859375 36.4663 0.472656 37.9351 0.472656C38.3023 0.472656 38.689 0.503906 39.0953 0.566406C39.5015 0.621094 39.8492 0.6875 40.1382 0.765625L39.8453 3.30859C39.6578 3.25391 39.4429 3.21484 39.2007 3.19141C38.9585 3.16016 38.7124 3.14453 38.4624 3.14453C37.8687 3.14453 37.4273 3.29688 37.1382 3.60156C36.8492 3.90625 36.7046 4.34375 36.7046 4.91406V6.32031H39.5757V8.72266H36.7046V16.5977L38.9429 16.9492V19H31.6304ZM45.2082 19.2461C43.9973 19.2461 42.9387 18.9805 42.0324 18.4492C41.1262 17.9102 40.4231 17.1719 39.9231 16.2344C39.4309 15.2969 39.1848 14.2266 39.1848 13.0234V12.5547C39.1848 11.2969 39.4192 10.1836 39.8879 9.21484C40.3567 8.23828 41.0168 7.47266 41.8684 6.91797C42.7278 6.35547 43.7395 6.07812 44.9035 6.08594C46.052 6.08594 47.0168 6.3125 47.7981 6.76562C48.5793 7.21875 49.1731 7.87109 49.5793 8.72266C49.9856 9.57422 50.1887 10.6055 50.1887 11.8164V13.6797H42.7356L42.7121 13.75C42.759 14.3047 42.8957 14.8008 43.1223 15.2383C43.3567 15.668 43.6848 16.0078 44.1067 16.2578C44.5285 16.5 45.0403 16.6211 45.6418 16.6211C46.2668 16.6211 46.8488 16.543 47.3879 16.3867C47.9348 16.2227 48.466 15.9844 48.9817 15.6719L49.9074 17.7812C49.384 18.2031 48.7238 18.5547 47.927 18.8359C47.1379 19.1094 46.2317 19.2461 45.2082 19.2461ZM42.759 11.418H46.9895V11.1133C46.9895 10.5977 46.9192 10.1562 46.7785 9.78906C46.6457 9.41406 46.427 9.125 46.1223 8.92188C45.8254 8.71875 45.4387 8.61719 44.9621 8.61719C44.509 8.61719 44.1262 8.73828 43.8137 8.98047C43.5012 9.21484 43.2551 9.53906 43.0754 9.95312C42.9035 10.3672 42.7863 10.8359 42.7238 11.3594L42.759 11.418ZM49.9853 19V16.9492L51.6376 16.5977V8.73438L49.8095 8.38281V6.32031H55.0595V16.5977L56.7001 16.9492V19H49.9853ZM51.5204 3.63672V0.71875H55.0595V3.63672H51.5204ZM56.0396 19V16.9492L57.6803 16.5977V8.73438L55.8638 8.38281V6.32031H60.8678L61.0201 8.13672C61.442 7.48828 61.9615 6.98438 62.5787 6.625C63.2037 6.26562 63.9146 6.08594 64.7115 6.08594C65.9693 6.08594 66.9537 6.48828 67.6646 7.29297C68.3756 8.09766 68.731 9.35938 68.731 11.0781V16.5977L70.3717 16.9492V19H63.8326V16.9492L65.2974 16.5977V11.0898C65.2974 10.2383 65.1295 9.63672 64.7935 9.28516C64.4576 8.92578 63.9576 8.74609 63.2935 8.74609C62.8013 8.74609 62.3717 8.85156 62.0045 9.0625C61.6451 9.26562 61.3443 9.55859 61.1021 9.94141V16.5977L62.4849 16.9492V19H56.0396Z" fill="white"/>
</svg>
