<svg width="71" height="20" viewBox="0 0 71 20" fill="none" xmlns="http://www.w3.org/2000/svg">
<path d="M6.70312 19.2461C5.48438 19.2461 4.42969 18.9727 3.53906 18.4258C2.65625 17.8789 1.97656 17.125 1.5 16.1641C1.02344 15.1953 0.785156 14.0898 0.785156 12.8477V12.4961C0.785156 11.2461 1.02734 10.1406 1.51172 9.17969C1.99609 8.21875 2.67969 7.46484 3.5625 6.91797C4.44531 6.36328 5.48438 6.08594 6.67969 6.08594C7.82031 6.08594 8.80078 6.26562 9.62109 6.625C10.4492 6.97656 11.1211 7.38672 11.6367 7.85547L11.6133 11.4883H9.03516L8.57812 9.22656C8.39062 9.03906 8.15234 8.88672 7.86328 8.76953C7.57422 8.65234 7.28125 8.59375 6.98438 8.59375C6.35938 8.59375 5.83984 8.75 5.42578 9.0625C5.01953 9.375 4.71484 9.82031 4.51172 10.3984C4.30859 10.9766 4.20703 11.6758 4.20703 12.4961V12.8477C4.20703 13.7148 4.32031 14.4297 4.54688 14.9922C4.77344 15.5469 5.07422 15.957 5.44922 16.2227C5.83203 16.4883 6.25781 16.6211 6.72656 16.6211C7.32812 16.6211 7.80859 16.4648 8.16797 16.1523C8.53516 15.832 8.78516 15.3828 8.91797 14.8047H11.8477L11.8828 14.875C11.75 15.7734 11.4844 16.5508 11.0859 17.207C10.6953 17.8633 10.1406 18.3672 9.42188 18.7188C8.71094 19.0703 7.80469 19.2461 6.70312 19.2461ZM15.9802 19.2461C14.7223 19.2461 13.7223 18.9102 12.9802 18.2383C12.238 17.5586 11.8669 16.6367 11.8669 15.4727C11.8669 14.6758 12.0817 13.9766 12.5114 13.375C12.9489 12.7734 13.5895 12.3008 14.4333 11.957C15.2848 11.6133 16.3317 11.4414 17.5739 11.4414H19.2497V10.5039C19.2497 9.89453 19.07 9.40234 18.7106 9.02734C18.3591 8.64453 17.8278 8.45312 17.1169 8.45312C16.7497 8.45312 16.4216 8.5 16.1325 8.59375C15.8434 8.67969 15.5778 8.80469 15.3356 8.96875L15.0661 10.6445H12.6052L12.5583 7.35156C13.2223 6.97656 13.9411 6.67188 14.7145 6.4375C15.488 6.20312 16.3512 6.08594 17.3044 6.08594C18.9606 6.08594 20.2692 6.47266 21.2302 7.24609C22.1911 8.01172 22.6716 9.10938 22.6716 10.5391V15.7656C22.6716 15.9375 22.6716 16.1094 22.6716 16.2812C22.6794 16.4453 22.695 16.6055 22.7184 16.7617L24.0427 16.9492V19H19.8005C19.7145 18.7812 19.6286 18.5469 19.5427 18.2969C19.4567 18.0469 19.3942 17.7969 19.3552 17.5469C18.9489 18.0625 18.4684 18.4766 17.9137 18.7891C17.3669 19.0938 16.7223 19.2461 15.9802 19.2461ZM16.8942 16.7148C17.3708 16.7148 17.8239 16.6094 18.2536 16.3984C18.6833 16.1797 19.0153 15.8945 19.2497 15.543V13.5391H17.5622C16.8122 13.5391 16.2419 13.7109 15.8512 14.0547C15.4684 14.3984 15.277 14.8125 15.277 15.2969C15.277 15.75 15.4177 16.1016 15.6989 16.3516C15.988 16.5938 16.3864 16.7148 16.8942 16.7148ZM23.7689 19V16.9492L25.4212 16.5977V8.72266H23.5345V6.32031H25.4212V4.91406C25.4212 3.49219 25.8275 2.39844 26.64 1.63281C27.4603 0.859375 28.6048 0.472656 30.0736 0.472656C30.4408 0.472656 30.8275 0.503906 31.2337 0.566406C31.64 0.621094 31.9877 0.6875 32.2767 0.765625L31.9837 3.30859C31.7962 3.25391 31.5814 3.21484 31.3392 3.19141C31.097 3.16016 30.8509 3.14453 30.6009 3.14453C30.0072 3.14453 29.5658 3.29688 29.2767 3.60156C28.9877 3.90625 28.8431 4.34375 28.8431 4.91406V6.32031H31.7142V8.72266H28.8431V16.5977L31.0814 16.9492V19H23.7689ZM31.4639 19V16.9492L33.1163 16.5977V8.72266H31.2295V6.32031H33.1163V4.91406C33.1163 3.49219 33.5225 2.39844 34.335 1.63281C35.1553 0.859375 36.2998 0.472656 37.7686 0.472656C38.1358 0.472656 38.5225 0.503906 38.9288 0.566406C39.335 0.621094 39.6827 0.6875 39.9717 0.765625L39.6788 3.30859C39.4913 3.25391 39.2764 3.21484 39.0342 3.19141C38.792 3.16016 38.5459 3.14453 38.2959 3.14453C37.7022 3.14453 37.2608 3.29688 36.9717 3.60156C36.6827 3.90625 36.5381 4.34375 36.5381 4.91406V6.32031H39.4092V8.72266H36.5381V16.5977L38.7764 16.9492V19H31.4639ZM45.0417 19.2461C43.8308 19.2461 42.7722 18.9805 41.8659 18.4492C40.9597 17.9102 40.2566 17.1719 39.7566 16.2344C39.2644 15.2969 39.0183 14.2266 39.0183 13.0234V12.5547C39.0183 11.2969 39.2527 10.1836 39.7214 9.21484C40.1902 8.23828 40.8503 7.47266 41.7019 6.91797C42.5612 6.35547 43.573 6.07812 44.737 6.08594C45.8855 6.08594 46.8503 6.3125 47.6316 6.76562C48.4128 7.21875 49.0066 7.87109 49.4128 8.72266C49.8191 9.57422 50.0222 10.6055 50.0222 11.8164V13.6797H42.5691L42.5456 13.75C42.5925 14.3047 42.7292 14.8008 42.9558 15.2383C43.1902 15.668 43.5183 16.0078 43.9402 16.2578C44.362 16.5 44.8737 16.6211 45.4753 16.6211C46.1003 16.6211 46.6823 16.543 47.2214 16.3867C47.7683 16.2227 48.2995 15.9844 48.8152 15.6719L49.7409 17.7812C49.2175 18.2031 48.5573 18.5547 47.7605 18.8359C46.9714 19.1094 46.0652 19.2461 45.0417 19.2461ZM42.5925 11.418H46.823V11.1133C46.823 10.5977 46.7527 10.1562 46.612 9.78906C46.4792 9.41406 46.2605 9.125 45.9558 8.92188C45.6589 8.71875 45.2722 8.61719 44.7956 8.61719C44.3425 8.61719 43.9597 8.73828 43.6472 8.98047C43.3347 9.21484 43.0886 9.53906 42.9089 9.95312C42.737 10.3672 42.6198 10.8359 42.5573 11.3594L42.5925 11.418ZM49.8187 19V16.9492L51.4711 16.5977V8.73438L49.643 8.38281V6.32031H54.893V16.5977L56.5336 16.9492V19H49.8187ZM51.3539 3.63672V0.71875H54.893V3.63672H51.3539ZM55.8731 19V16.9492L57.5138 16.5977V8.73438L55.6973 8.38281V6.32031H60.7013L60.8536 8.13672C61.2755 7.48828 61.795 6.98438 62.4122 6.625C63.0372 6.26562 63.7481 6.08594 64.545 6.08594C65.8028 6.08594 66.7872 6.48828 67.4981 7.29297C68.2091 8.09766 68.5645 9.35938 68.5645 11.0781V16.5977L70.2052 16.9492V19H63.6661V16.9492L65.1309 16.5977V11.0898C65.1309 10.2383 64.963 9.63672 64.627 9.28516C64.2911 8.92578 63.7911 8.74609 63.127 8.74609C62.6348 8.74609 62.2052 8.85156 61.838 9.0625C61.4786 9.26562 61.1778 9.55859 60.9356 9.94141V16.5977L62.3184 16.9492V19H55.8731Z" fill="url(#paint0_linear_6_1685)"/>
<defs>
<linearGradient id="paint0_linear_6_1685" x1="-109.082" y1="-24.8" x2="172.96" y2="61.816" gradientUnits="userSpaceOnUse">
<stop offset="0.151042" stop-color="#854BFF"/>
<stop offset="0.411458" stop-color="#7179FF"/>
<stop offset="0.46875" stop-color="#6D83FF"/>
<stop offset="0.515625" stop-color="#698BFF"/>
<stop offset="0.583333" stop-color="#6499FF"/>
<stop offset="0.65625" stop-color="#659BF7"/>
<stop offset="0.760417" stop-color="#669FEA"/>
<stop offset="0.890625" stop-color="#69A9CD"/>
<stop offset="1" stop-color="#6CB1B2"/>
</linearGradient>
</defs>
</svg>
